<mxfile host="Electron" modified="2024-02-19T06:50:41.214Z" agent="Mozilla/5.0 (Windows NT 10.0; Win64; x64) AppleWebKit/537.36 (KHTML, like Gecko) draw.io/21.6.8 Chrome/114.0.5735.289 Electron/25.5.0 Safari/537.36" etag="WF-YUt2sbmzGna_3Vj5l" version="21.6.8" type="device">
  <diagram name="第 1 页" id="kbVrqv2-B--nVTz4hXKm">
    <mxGraphModel dx="1036" dy="702" grid="1" gridSize="10" guides="1" tooltips="1" connect="1" arrows="1" fold="1" page="1" pageScale="1" pageWidth="827" pageHeight="1169" math="0" shadow="0">
      <root>
        <mxCell id="0" />
        <mxCell id="1" parent="0" />
        <mxCell id="ZscRobrN0BSYRNawpJu_-29" style="edgeStyle=orthogonalEdgeStyle;rounded=0;orthogonalLoop=1;jettySize=auto;html=1;exitX=0.25;exitY=1;exitDx=0;exitDy=0;entryX=0.25;entryY=0;entryDx=0;entryDy=0;" edge="1" parent="1" source="ZscRobrN0BSYRNawpJu_-30" target="ZscRobrN0BSYRNawpJu_-34">
          <mxGeometry relative="1" as="geometry" />
        </mxCell>
        <mxCell id="ZscRobrN0BSYRNawpJu_-30" value="&lt;font style=&quot;font-size: 24px;&quot;&gt;客户端&lt;/font&gt;" style="rounded=0;whiteSpace=wrap;html=1;" vertex="1" parent="1">
          <mxGeometry x="310" y="730" width="180" height="40" as="geometry" />
        </mxCell>
        <mxCell id="ZscRobrN0BSYRNawpJu_-31" style="edgeStyle=orthogonalEdgeStyle;rounded=0;orthogonalLoop=1;jettySize=auto;html=1;exitX=0.75;exitY=0;exitDx=0;exitDy=0;entryX=0.75;entryY=1;entryDx=0;entryDy=0;" edge="1" parent="1" source="ZscRobrN0BSYRNawpJu_-34" target="ZscRobrN0BSYRNawpJu_-30">
          <mxGeometry relative="1" as="geometry" />
        </mxCell>
        <mxCell id="ZscRobrN0BSYRNawpJu_-32" style="edgeStyle=orthogonalEdgeStyle;rounded=0;orthogonalLoop=1;jettySize=auto;html=1;exitX=0.75;exitY=1;exitDx=0;exitDy=0;entryX=0.564;entryY=0.095;entryDx=0;entryDy=0;entryPerimeter=0;" edge="1" parent="1" source="ZscRobrN0BSYRNawpJu_-34" target="ZscRobrN0BSYRNawpJu_-37">
          <mxGeometry relative="1" as="geometry" />
        </mxCell>
        <mxCell id="ZscRobrN0BSYRNawpJu_-33" style="edgeStyle=orthogonalEdgeStyle;rounded=0;orthogonalLoop=1;jettySize=auto;html=1;exitX=0.25;exitY=1;exitDx=0;exitDy=0;entryX=0.336;entryY=0.115;entryDx=0;entryDy=0;entryPerimeter=0;" edge="1" parent="1" source="ZscRobrN0BSYRNawpJu_-34" target="ZscRobrN0BSYRNawpJu_-37">
          <mxGeometry relative="1" as="geometry" />
        </mxCell>
        <mxCell id="ZscRobrN0BSYRNawpJu_-34" value="&lt;font style=&quot;font-size: 24px;&quot;&gt;Ngnix服务器&lt;/font&gt;" style="rounded=0;whiteSpace=wrap;html=1;" vertex="1" parent="1">
          <mxGeometry x="310" y="850" width="180" height="40" as="geometry" />
        </mxCell>
        <mxCell id="ZscRobrN0BSYRNawpJu_-35" style="edgeStyle=orthogonalEdgeStyle;rounded=0;orthogonalLoop=1;jettySize=auto;html=1;exitX=0.25;exitY=1;exitDx=0;exitDy=0;entryX=0.25;entryY=0;entryDx=0;entryDy=0;" edge="1" parent="1" source="ZscRobrN0BSYRNawpJu_-37" target="ZscRobrN0BSYRNawpJu_-42">
          <mxGeometry relative="1" as="geometry" />
        </mxCell>
        <mxCell id="ZscRobrN0BSYRNawpJu_-36" style="edgeStyle=orthogonalEdgeStyle;rounded=0;orthogonalLoop=1;jettySize=auto;html=1;exitX=0.75;exitY=1;exitDx=0;exitDy=0;entryX=0.75;entryY=0;entryDx=0;entryDy=0;" edge="1" parent="1" source="ZscRobrN0BSYRNawpJu_-37" target="ZscRobrN0BSYRNawpJu_-42">
          <mxGeometry relative="1" as="geometry" />
        </mxCell>
        <mxCell id="ZscRobrN0BSYRNawpJu_-37" value="&lt;font style=&quot;font-size: 24px;&quot;&gt;WSGI协议的web服务器（uWSGI）&lt;/font&gt;" style="rounded=0;whiteSpace=wrap;html=1;" vertex="1" parent="1">
          <mxGeometry x="220" y="970" width="400" height="40" as="geometry" />
        </mxCell>
        <mxCell id="ZscRobrN0BSYRNawpJu_-38" value="&lt;font style=&quot;font-size: 20px;&quot;&gt;http请求&lt;/font&gt;" style="text;html=1;strokeColor=none;fillColor=none;align=center;verticalAlign=middle;whiteSpace=wrap;rounded=0;" vertex="1" parent="1">
          <mxGeometry x="240" y="800" width="110" height="30" as="geometry" />
        </mxCell>
        <mxCell id="ZscRobrN0BSYRNawpJu_-39" value="&lt;font style=&quot;font-size: 20px;&quot;&gt;http响应&lt;/font&gt;" style="text;html=1;strokeColor=none;fillColor=none;align=center;verticalAlign=middle;whiteSpace=wrap;rounded=0;" vertex="1" parent="1">
          <mxGeometry x="460" y="800" width="110" height="30" as="geometry" />
        </mxCell>
        <mxCell id="ZscRobrN0BSYRNawpJu_-40" value="&lt;font style=&quot;font-size: 20px;&quot;&gt;uwsgi协议&lt;/font&gt;" style="text;html=1;strokeColor=none;fillColor=none;align=center;verticalAlign=middle;whiteSpace=wrap;rounded=0;" vertex="1" parent="1">
          <mxGeometry x="220" y="910" width="110" height="30" as="geometry" />
        </mxCell>
        <mxCell id="ZscRobrN0BSYRNawpJu_-41" value="&lt;font style=&quot;font-size: 20px;&quot;&gt;uwsgi协议&lt;/font&gt;" style="text;html=1;strokeColor=none;fillColor=none;align=center;verticalAlign=middle;whiteSpace=wrap;rounded=0;" vertex="1" parent="1">
          <mxGeometry x="470" y="910" width="110" height="30" as="geometry" />
        </mxCell>
        <mxCell id="ZscRobrN0BSYRNawpJu_-42" value="&lt;font style=&quot;font-size: 24px;&quot;&gt;WSGI协议的web应用（Flask）&lt;/font&gt;" style="rounded=0;whiteSpace=wrap;html=1;" vertex="1" parent="1">
          <mxGeometry x="220" y="1090" width="400" height="40" as="geometry" />
        </mxCell>
        <mxCell id="ZscRobrN0BSYRNawpJu_-43" value="&lt;font style=&quot;font-size: 20px;&quot;&gt;WSGI协议&lt;/font&gt;" style="text;html=1;strokeColor=none;fillColor=none;align=center;verticalAlign=middle;whiteSpace=wrap;rounded=0;" vertex="1" parent="1">
          <mxGeometry x="200" y="1030" width="110" height="30" as="geometry" />
        </mxCell>
        <mxCell id="ZscRobrN0BSYRNawpJu_-44" value="&lt;font style=&quot;font-size: 20px;&quot;&gt;WSGI协议&lt;/font&gt;" style="text;html=1;strokeColor=none;fillColor=none;align=center;verticalAlign=middle;whiteSpace=wrap;rounded=0;" vertex="1" parent="1">
          <mxGeometry x="550" y="1030" width="110" height="30" as="geometry" />
        </mxCell>
      </root>
    </mxGraphModel>
  </diagram>
</mxfile>
